<svg xmlns="http://www.w3.org/2000/svg" viewBox="0 0 280 56" fill="none">
  <defs>
    <filter id="glow" x="-80%" y="-80%" width="260%" height="260%">
      <feGaussianBlur in="SourceGraphic" stdDeviation="1.5" result="blur"/>
      <feMerge>
        <feMergeNode in="blur"/>
        <feMergeNode in="SourceGraphic"/>
      </feMerge>
    </filter>
    <filter id="softGlow" x="-80%" y="-80%" width="260%" height="260%">
      <feGaussianBlur in="SourceGraphic" stdDeviation="3" result="blur"/>
      <feMerge>
        <feMergeNode in="blur"/>
        <feMergeNode in="SourceGraphic"/>
      </feMerge>
    </filter>
    <linearGradient id="bgGrad" x1="0" y1="0" x2="56" y2="56" gradientUnits="userSpaceOnUse">
      <stop offset="0%" stop-color="#141416"/>
      <stop offset="100%" stop-color="#0a0a0b"/>
    </linearGradient>
    <linearGradient id="textGrad" x1="88" y1="0" x2="280" y2="0" gradientUnits="userSpaceOnUse">
      <stop offset="0%" stop-color="#f0f0f2"/>
      <stop offset="100%" stop-color="#c8c8d0"/>
    </linearGradient>
  </defs>

  <!-- ── ICON MARK (56×56) ── -->
  <!-- Background square -->
  <rect x="0" y="0" width="56" height="56" rx="10" fill="url(#bgGrad)"/>
  <rect x="0" y="0" width="56" height="56" rx="10" stroke="#2e2e33" stroke-width="1" fill="none"/>

  <!-- Corner accent ticks — top-left -->
  <path d="M0 16 L0 10 Q0 0 10 0 L16 0" stroke="#3b82f6" stroke-width="1" stroke-opacity="0.35" stroke-linecap="round"/>
  <!-- Corner accent ticks — bottom-right -->
  <path d="M56 40 L56 46 Q56 56 46 56 L40 56" stroke="#3b82f6" stroke-width="1" stroke-opacity="0.35" stroke-linecap="round"/>

  <!-- Horizontal guide lines (scan lines) -->
  <line x1="9" y1="28" x2="16" y2="28" stroke="#3b82f6" stroke-width="0.75" stroke-opacity="0.2"/>
  <line x1="40" y1="28" x2="47" y2="28" stroke="#3b82f6" stroke-width="0.75" stroke-opacity="0.2"/>

  <!-- N neural traces -->
  <g filter="url(#glow)">
    <!-- Left vertical -->
    <line x1="15" y1="13" x2="15" y2="43" stroke="#3b82f6" stroke-width="2.25" stroke-linecap="round"/>
    <!-- Diagonal -->
    <line x1="15" y1="13" x2="41" y2="43" stroke="#3b82f6" stroke-width="2.25" stroke-linecap="round"/>
    <!-- Right vertical -->
    <line x1="41" y1="13" x2="41" y2="43" stroke="#3b82f6" stroke-width="2.25" stroke-linecap="round"/>
  </g>

  <!-- Neural nodes -->
  <circle cx="15" cy="13" r="3.5" fill="#3b82f6" filter="url(#glow)"/>
  <circle cx="41" cy="13" r="3.5" fill="#3b82f6" filter="url(#glow)"/>
  <circle cx="15" cy="43" r="3.5" fill="#3b82f6" filter="url(#glow)"/>
  <circle cx="41" cy="43" r="3.5" fill="#3b82f6" filter="url(#glow)"/>

  <!-- Midpoint crossing node -->
  <circle cx="28" cy="28" r="2.5" fill="#0d2044" stroke="#3b82f6" stroke-width="1.25" filter="url(#glow)"/>

  <!-- ── WORDMARK ── -->
  <!-- "NEURO" -->
  <text
    x="72"
    y="21"
    font-family="'DM Mono', 'Courier New', monospace"
    font-size="11"
    font-weight="500"
    letter-spacing="4"
    fill="#3b82f6"
  >NEURO</text>

  <!-- "COMPUTE" -->
  <text
    x="72"
    y="39"
    font-family="'DM Mono', 'Courier New', monospace"
    font-size="16"
    font-weight="500"
    letter-spacing="2"
    fill="url(#textGrad)"
  >COMPUTE</text>

  <!-- Separator line between NEURO and COMPUTE -->
  <line x1="72" y1="25" x2="264" y2="25" stroke="#2e2e33" stroke-width="0.75"/>

  <!-- Tagline -->
  <text
    x="72"
    y="50"
    font-family="'DM Mono', 'Courier New', monospace"
    font-size="7"
    font-weight="400"
    letter-spacing="1.5"
    fill="#52525a"
  >REAL-TIME VISION SYSTEM</text>
</svg>
